<svg width="15" height="15" viewBox="0 0 15 15" fill="none" xmlns="http://www.w3.org/2000/svg">
<path fill-rule="evenodd" clip-rule="evenodd" d="M9.00003 1.5C9.00003 0.671573 8.32845 0 7.50003 0C6.6716 0 6.00003 0.671573 6.00003 1.5L6.00002 6.0001H1.5C0.671573 6.0001 0 6.67168 0 7.5001C0 8.32853 0.671573 9.0001 1.5 9.0001H6.00002L6.00002 13.5C6.00002 14.3284 6.6716 15 7.50002 15C8.32845 15 9.00002 14.3284 9.00002 13.5V9.0001H13.5C14.3284 9.0001 15 8.32853 15 7.5001C15 6.67168 14.3284 6.0001 13.5 6.0001H9.00003V1.5Z" fill="white"/>
</svg>
