<svg width="12" height="12" viewBox="0 0 12 12" fill="none" xmlns="http://www.w3.org/2000/svg">
<path fill-rule="evenodd" clip-rule="evenodd" d="M7.20002 1.2C7.20002 0.537258 6.66276 0 6.00002 0C5.33728 0 4.80002 0.537258 4.80002 1.2L4.80002 4.80007H1.2C0.537258 4.80007 0 5.33733 0 6.00007C0 6.66281 0.537258 7.20007 1.2 7.20007H4.80002L4.80002 10.8C4.80002 11.4627 5.33727 12 6.00002 12C6.66276 12 7.20002 11.4627 7.20002 10.8L7.20002 7.20007H10.8C11.4627 7.20007 12 6.66281 12 6.00007C12 5.33733 11.4627 4.80007 10.8 4.80007H7.20002L7.20002 1.2Z" fill="white"/>
</svg>
