<svg width="26" height="25" viewBox="0 0 26 25" fill="none" xmlns="http://www.w3.org/2000/svg">
<ellipse cx="13" cy="13.5454" rx="5.45455" ry="5.45455" stroke="white" stroke-width="2"/>
<path d="M8.58808 1.8906L7.75603 1.3359L7.75603 1.3359L8.58808 1.8906ZM7.00001 4.27272V5.27272C7.33436 5.27272 7.64659 5.10561 7.83206 4.82742L7.00001 4.27272ZM21 4.27272V3.27272L21 3.27272L21 4.27272ZM19 4.27273L18.1679 4.82743C18.3534 5.10563 18.6657 5.27273 19 5.27273L19 4.27273ZM17.4119 1.8906L18.244 1.3359L18.244 1.3359L17.4119 1.8906ZM9.42013 2.4453C9.6056 2.1671 9.91783 2 10.2522 2V0C9.24913 0 8.31243 0.501304 7.75603 1.3359L9.42013 2.4453ZM7.83206 4.82742L9.42013 2.4453L7.75603 1.3359L6.16796 3.71802L7.83206 4.82742ZM5 5.27272H7.00001V3.27272H5V5.27272ZM2 8.27272C2 6.61586 3.34315 5.27272 5 5.27272V3.27272C2.23858 3.27272 0 5.5113 0 8.27272H2ZM2 19.9091V8.27272H0V19.9091H2ZM5 22.9091C3.34315 22.9091 2 21.5659 2 19.9091H0C0 22.6705 2.23858 24.9091 5 24.9091V22.9091ZM21 22.9091H5V24.9091H21V22.9091ZM24 19.9091C24 21.5659 22.6569 22.9091 21 22.9091V24.9091C23.7614 24.9091 26 22.6705 26 19.9091H24ZM24 8.27272V19.9091H26V8.27272H24ZM21 5.27272C22.6569 5.27272 24 6.61586 24 8.27272H26C26 5.51129 23.7614 3.27272 21 3.27272V5.27272ZM19 5.27273L21 5.27272L21 3.27272L19 3.27273L19 5.27273ZM16.5799 2.4453L18.1679 4.82743L19.8321 3.71803L18.244 1.3359L16.5799 2.4453ZM15.7478 2C16.0822 2 16.3944 2.1671 16.5799 2.4453L18.244 1.3359C17.6876 0.501304 16.7509 0 15.7478 0V2ZM10.2522 2H15.7478V0H10.2522V2Z" fill="white"/>
</svg>
