<svg width="24" height="24" viewBox="0 0 24 24" fill="none" xmlns="http://www.w3.org/2000/svg">
<path d="M12.2908 4.90691C12.6603 4.52147 13.0051 4.11625 13.3968 3.76046C15.5124 1.83693 18.3557 1.45519 20.564 2.78325C22.8389 4.15208 23.9832 7.03058 23.306 9.75588C22.6919 12.2304 21.1979 14.1836 19.5111 16.0083C17.4487 18.2394 15.0663 20.1012 12.6158 21.8789C12.4626 21.9901 12.1191 22.0457 11.9918 21.9531C8.62569 19.502 5.34855 16.946 2.93766 13.4782C1.85764 11.9265 1.0396 10.2513 1.00129 8.30552C0.950625 5.74081 2.39765 3.39354 4.57623 2.4534C6.76222 1.50954 9.40295 2.08771 11.2714 3.91859C11.5914 4.23238 11.9152 4.54247 12.2908 4.90691Z" fill="#D23636"/>
</svg>
