<svg width="24" height="24" viewBox="0 0 24 24" fill="none" xmlns="http://www.w3.org/2000/svg">
<path d="M12.314 6.18333L11.6642 5.55288C11.5296 5.42237 11.4002 5.29732 11.2744 5.17584C11.0546 4.96349 10.8461 4.76205 10.6415 4.56141C9.00072 2.95363 6.74236 2.49843 4.93299 3.27967L4.93283 3.27973C3.11907 4.06244 1.85702 6.05591 1.90111 8.28774L1.90111 8.2878C1.93442 9.97965 2.64327 11.4798 3.67634 12.964L3.67663 12.9644C5.93146 16.2077 8.99036 18.6439 12.2533 21.0298C14.6308 19.2988 16.895 17.5125 18.8503 15.3974L19.5111 16.0083L18.8503 15.3974C20.5094 13.6026 21.8746 11.7871 22.4325 9.53909L22.4326 9.53886C23.0207 7.17223 22.0148 4.70667 20.1001 3.55451L12.314 6.18333ZM12.314 6.18333L12.9405 5.52971M12.314 6.18333L12.9405 5.52971M12.9405 5.52971C13.0847 5.37934 13.212 5.24124 13.3318 5.1114C13.5615 4.86221 13.7633 4.64342 14.0019 4.42667L14.0023 4.42636M12.9405 5.52971L14.0023 4.42636M14.0023 4.42636C15.8653 2.73241 18.2782 2.4589 20.1 3.55442L14.0023 4.42636Z" stroke="black" stroke-width="1.8"/>
</svg>
