<svg width="26" height="23" viewBox="0 0 26 23" fill="none" xmlns="http://www.w3.org/2000/svg">
<path d="M14.7024 21.2869C14.2925 21.7045 13.7449 21.9541 13.1662 21.9942H13.0003C12.3611 21.9942 11.7471 21.7385 11.2982 21.2812L11.2951 21.278L3.10776 13.0107L3.10779 13.0107L3.10119 13.0042C0.392071 10.319 0.289136 5.93124 2.87091 3.11587C5.41684 0.451477 9.58473 0.283226 12.3365 2.7258L13.0003 3.31506L13.6642 2.7258C16.4158 0.283329 20.5835 0.451463 23.1294 3.11553C25.7116 5.9367 25.6086 10.3189 22.8937 13.0099L22.8937 13.0099L22.8869 13.0167L14.7053 21.284L14.7024 21.2869Z" stroke="white" stroke-width="2"/>
</svg>
