<svg width="24" height="24" viewBox="0 0 24 24" fill="none" xmlns="http://www.w3.org/2000/svg">
<path d="M22 22V22.75H22.75V22H22ZM22 11.5358H22.75V11.2146L22.5176 10.993L22 11.5358ZM16 22H15.25V22.75H16V22ZM8 22V22.75H8.75V22H8ZM2 22H1.25V22.75H2V22ZM2 11.5358L1.48242 10.993L1.25 11.2146V11.5358H2ZM12 2L12.5176 1.45722L12 0.963667L11.4824 1.45722L12 2ZM22.75 22V11.5358H21.25V22H22.75ZM16 22.75H22V21.25H16V22.75ZM16.75 22V17H15.25V22H16.75ZM16.75 17C16.75 14.3766 14.6234 12.25 12 12.25V13.75C13.7949 13.75 15.25 15.2051 15.25 17H16.75ZM12 12.25C9.37665 12.25 7.25 14.3766 7.25 17H8.75C8.75 15.2051 10.2051 13.75 12 13.75V12.25ZM7.25 17V22H8.75V17H7.25ZM2 22.75H8V21.25H2V22.75ZM1.25 11.5358V22H2.75V11.5358H1.25ZM11.4824 1.45722L1.48242 10.993L2.51758 12.0785L12.5176 2.54278L11.4824 1.45722ZM22.5176 10.993L12.5176 1.45722L11.4824 2.54278L21.4824 12.0785L22.5176 10.993Z" fill="black"/>
</svg>
