<svg width="24" height="24" viewBox="0 0 24 24" fill="none" xmlns="http://www.w3.org/2000/svg">
<path fill-rule="evenodd" clip-rule="evenodd" d="M1.50257 7.32268C1.59636 4.09099 4.2456 1.5 7.5 1.5H11.2857L15.1675 7.32268H10.5507L6.70381 1.5524C6.09364 1.6333 5.51242 1.8059 4.97446 2.05588L8.48566 7.32268H1.50257ZM1.5 7.5C1.5 7.44069 1.50086 7.38158 1.50257 7.32268H1.5V7.5ZM1.5 9.04086V16.5C1.5 19.8137 4.18629 22.5 7.5 22.5H16.5C19.8137 22.5 22.5 19.8137 22.5 16.5V9.04086H1.5ZM22.5 7.5V7.32268H22.4974C22.4036 4.09099 19.7544 1.5 16.5 1.5H13.3507L17.2325 7.32268H22.4974C22.4991 7.38158 22.5 7.44069 22.5 7.5ZM15.0927 14.2211C15.4236 14.4183 15.4236 14.9113 15.0927 15.1085L9.88091 18.2147C9.55 18.4119 9.13637 18.1654 9.13637 17.771L9.13637 11.5586C9.13637 11.1642 9.55001 10.9177 9.88091 11.1149L15.0927 14.2211Z" fill="black"/>
</svg>
