<svg width="24" height="24" viewBox="0 0 24 24" fill="none" xmlns="http://www.w3.org/2000/svg">
<path d="M3.9789 6.30002H20.0211C20.602 6.30002 21.0827 6.75167 21.119 7.33141L21.8362 18.8067C21.9477 20.5913 20.5303 22.1 18.7422 22.1H5.2578C3.46966 22.1 2.0523 20.5913 2.16384 18.8067L2.88104 7.33141C2.91728 6.75167 3.39803 6.30002 3.9789 6.30002Z" stroke="black" stroke-width="1.8"/>
<path d="M15.3 9.90002C15.3 11.7226 13.8225 13.2 12 13.2C10.1774 13.2 8.69995 11.7226 8.69995 9.90002" stroke="black" stroke-width="1.8" stroke-linecap="round"/>
<path d="M15.3 5.95001V4.30001C15.3 2.47747 13.8225 1.00001 12 1.00001C10.1774 1.00001 8.69995 2.47747 8.69995 4.30001V5.95001" stroke="black" stroke-width="1.8" stroke-linecap="round"/>
</svg>
