<svg width="24" height="24" viewBox="0 0 24 24" fill="none" xmlns="http://www.w3.org/2000/svg">
<path d="M10.201 3.79701L12 1.99701L13.799 3.79701C14.0972 4.09486 14.5015 4.26212 14.923 4.26201H20.182C20.6642 4.26201 21.1266 4.45355 21.4675 4.79449C21.8085 5.13543 22 5.59785 22 6.08001V20.184C22 20.6662 21.8085 21.1286 21.4675 21.4695C21.1266 21.8105 20.6642 22.002 20.182 22.002H3.818C3.33584 22.002 2.87342 21.8105 2.53248 21.4695C2.19154 21.1286 2 20.6662 2 20.184V6.08001C2 5.59785 2.19154 5.13543 2.53248 4.79449C2.87342 4.45355 3.33584 4.26201 3.818 4.26201H9.078C9.49914 4.26185 9.90302 4.09462 10.201 3.79701V3.79701Z" stroke="#212121" stroke-width="2" stroke-linecap="round" stroke-linejoin="round"/>
<path d="M18.598 22.002V21.4C18.598 20.3528 18.1821 19.3485 17.4417 18.608C16.7014 17.8674 15.6972 17.4513 14.65 17.451H9.49502C8.44768 17.451 7.44324 17.867 6.70266 18.6076C5.96207 19.3482 5.54602 20.3526 5.54602 21.4V22.003" stroke="#212121" stroke-width="2" stroke-linecap="round" stroke-linejoin="round"/>
<path d="M12.072 14.631C14.0359 14.631 15.628 13.0389 15.628 11.075C15.628 9.11109 14.0359 7.51901 12.072 7.51901C10.1081 7.51901 8.51599 9.11109 8.51599 11.075C8.51599 13.0389 10.1081 14.631 12.072 14.631Z" stroke="#212121" stroke-width="2" stroke-linecap="round" stroke-linejoin="round"/>
</svg>
