<svg width="13" height="15" viewBox="0 0 13 15" fill="none" xmlns="http://www.w3.org/2000/svg">
<path fill-rule="evenodd" clip-rule="evenodd" d="M12.9999 0L3.90011 1.73329V3.89984V5.19988V9.4478C3.51765 9.22651 3.07358 9.09986 2.59994 9.09986C1.16403 9.09986 0 10.2639 0 11.6998C0 13.1357 1.16403 14.2997 2.59994 14.2997C4.03585 14.2997 5.19988 13.1357 5.19988 11.6998V11.6997H5.20008V4.95227L11.6995 3.71428V8.14723C11.3172 7.92623 10.8735 7.79975 10.4002 7.79975C8.96424 7.79975 7.80021 8.96378 7.80021 10.3997C7.80021 11.8356 8.96424 12.9996 10.4002 12.9996C11.8361 12.9996 13.0001 11.8356 13.0001 10.3997C13.0001 10.3808 12.9999 10.362 12.9995 10.3433V3.46667L12.9999 3.46659V0Z" fill="white"/>
</svg>
